<mxfile host="Electron" modified="2024-05-19T08:32:08.947Z" agent="Mozilla/5.0 (Windows NT 10.0; Win64; x64) AppleWebKit/537.36 (KHTML, like Gecko) draw.io/24.4.0 Chrome/120.0.6099.109 Electron/28.1.0 Safari/537.36" etag="SmIwIwzNMnGmhf9T-REE" version="24.4.0" type="device">
  <diagram name="Page-1" id="mfnypvU7JTdG7bWMHGOg">
    <mxGraphModel dx="2486" dy="957" grid="1" gridSize="10" guides="1" tooltips="1" connect="1" arrows="1" fold="1" page="1" pageScale="1" pageWidth="827" pageHeight="1169" math="0" shadow="0">
      <root>
        <mxCell id="0" />
        <mxCell id="1" parent="0" />
        <mxCell id="zPg9-DdeoBqVfjQdLSbW-1" value="User" style="swimlane;whiteSpace=wrap;html=1;" parent="1" vertex="1">
          <mxGeometry x="-170" y="10" width="455" height="1820" as="geometry" />
        </mxCell>
        <mxCell id="qDwk5MYWlUArIIvirNfc-8" style="edgeStyle=orthogonalEdgeStyle;rounded=0;orthogonalLoop=1;jettySize=auto;html=1;endArrow=open;endFill=0;endSize=12;startSize=6;sourcePerimeterSpacing=0;" edge="1" parent="zPg9-DdeoBqVfjQdLSbW-1" source="zPg9-DdeoBqVfjQdLSbW-3" target="zPg9-DdeoBqVfjQdLSbW-6">
          <mxGeometry relative="1" as="geometry" />
        </mxCell>
        <mxCell id="zPg9-DdeoBqVfjQdLSbW-3" value="&lt;span data-lucid-type=&quot;application/vnd.lucid.text&quot; data-lucid-content=&quot;{&amp;quot;t&amp;quot;:&amp;quot;User navigates to the sign up page&amp;quot;,&amp;quot;m&amp;quot;:[{&amp;quot;s&amp;quot;:0,&amp;quot;n&amp;quot;:&amp;quot;s&amp;quot;,&amp;quot;v&amp;quot;:22.22222222222222,&amp;quot;e&amp;quot;:34},{&amp;quot;s&amp;quot;:0,&amp;quot;n&amp;quot;:&amp;quot;fsp&amp;quot;,&amp;quot;v&amp;quot;:&amp;quot;ss_presetShapeStyle1_textStyle&amp;quot;,&amp;quot;e&amp;quot;:34},{&amp;quot;s&amp;quot;:0,&amp;quot;n&amp;quot;:&amp;quot;fsp2&amp;quot;,&amp;quot;v&amp;quot;:&amp;quot;ss_presetShapeStyle1_textStyle&amp;quot;,&amp;quot;e&amp;quot;:34}]}&quot;&gt;&lt;span style=&quot;&quot;&gt;&lt;font style=&quot;font-size: 12px;&quot;&gt;User navigates to the sign up page&lt;/font&gt;&lt;/span&gt;&lt;/span&gt;" style="rounded=1;whiteSpace=wrap;html=1;fontColor=default;" parent="zPg9-DdeoBqVfjQdLSbW-1" vertex="1">
          <mxGeometry x="167.5" y="150" width="120" height="60" as="geometry" />
        </mxCell>
        <mxCell id="zPg9-DdeoBqVfjQdLSbW-4" value="" style="edgeStyle=orthogonalEdgeStyle;rounded=0;orthogonalLoop=1;jettySize=auto;html=1;endArrow=open;endFill=0;endSize=12;startSize=6;sourcePerimeterSpacing=0;" parent="zPg9-DdeoBqVfjQdLSbW-1" source="zPg9-DdeoBqVfjQdLSbW-5" target="zPg9-DdeoBqVfjQdLSbW-3" edge="1">
          <mxGeometry relative="1" as="geometry" />
        </mxCell>
        <mxCell id="zPg9-DdeoBqVfjQdLSbW-5" value="" style="ellipse;whiteSpace=wrap;html=1;aspect=fixed;fillColor=#000000;" parent="zPg9-DdeoBqVfjQdLSbW-1" vertex="1">
          <mxGeometry x="202.5" y="60" width="50" height="50" as="geometry" />
        </mxCell>
        <mxCell id="qDwk5MYWlUArIIvirNfc-9" style="edgeStyle=orthogonalEdgeStyle;rounded=0;orthogonalLoop=1;jettySize=auto;html=1;" edge="1" parent="zPg9-DdeoBqVfjQdLSbW-1" source="zPg9-DdeoBqVfjQdLSbW-6" target="qDwk5MYWlUArIIvirNfc-1">
          <mxGeometry relative="1" as="geometry" />
        </mxCell>
        <mxCell id="zPg9-DdeoBqVfjQdLSbW-6" value="User submits username" style="rounded=1;whiteSpace=wrap;html=1;" parent="zPg9-DdeoBqVfjQdLSbW-1" vertex="1">
          <mxGeometry x="167.5" y="250" width="120" height="60" as="geometry" />
        </mxCell>
        <mxCell id="qDwk5MYWlUArIIvirNfc-22" style="edgeStyle=orthogonalEdgeStyle;rounded=0;orthogonalLoop=1;jettySize=auto;html=1;endArrow=open;endFill=0;endSize=12;startSize=6;sourcePerimeterSpacing=0;" edge="1" parent="zPg9-DdeoBqVfjQdLSbW-1" source="zPg9-DdeoBqVfjQdLSbW-188" target="zPg9-DdeoBqVfjQdLSbW-6">
          <mxGeometry relative="1" as="geometry">
            <Array as="points">
              <mxPoint x="320" y="555" />
              <mxPoint x="100" y="555" />
              <mxPoint x="100" y="280" />
            </Array>
          </mxGeometry>
        </mxCell>
        <mxCell id="zPg9-DdeoBqVfjQdLSbW-188" value="User edits username" style="rounded=1;whiteSpace=wrap;html=1;" parent="zPg9-DdeoBqVfjQdLSbW-1" vertex="1">
          <mxGeometry x="310" y="800" width="120" height="60" as="geometry" />
        </mxCell>
        <mxCell id="qDwk5MYWlUArIIvirNfc-21" style="edgeStyle=orthogonalEdgeStyle;rounded=0;orthogonalLoop=1;jettySize=auto;html=1;endArrow=open;endFill=0;endSize=12;startSize=6;sourcePerimeterSpacing=0;" edge="1" parent="zPg9-DdeoBqVfjQdLSbW-1" source="zPg9-DdeoBqVfjQdLSbW-191" target="qDwk5MYWlUArIIvirNfc-1">
          <mxGeometry relative="1" as="geometry">
            <Array as="points">
              <mxPoint x="190" y="605" />
              <mxPoint x="130" y="605" />
              <mxPoint x="130" y="380" />
            </Array>
          </mxGeometry>
        </mxCell>
        <mxCell id="zPg9-DdeoBqVfjQdLSbW-191" value="User edits email" style="rounded=1;whiteSpace=wrap;html=1;" parent="zPg9-DdeoBqVfjQdLSbW-1" vertex="1">
          <mxGeometry x="167.5" y="800" width="120" height="60" as="geometry" />
        </mxCell>
        <mxCell id="qDwk5MYWlUArIIvirNfc-20" style="edgeStyle=orthogonalEdgeStyle;rounded=0;orthogonalLoop=1;jettySize=auto;html=1;endArrow=open;endFill=0;endSize=12;startSize=6;sourcePerimeterSpacing=0;" edge="1" parent="zPg9-DdeoBqVfjQdLSbW-1" source="zPg9-DdeoBqVfjQdLSbW-203" target="qDwk5MYWlUArIIvirNfc-2">
          <mxGeometry relative="1" as="geometry">
            <Array as="points">
              <mxPoint x="60" y="480" />
            </Array>
          </mxGeometry>
        </mxCell>
        <mxCell id="zPg9-DdeoBqVfjQdLSbW-203" value="User edits password" style="rounded=1;whiteSpace=wrap;html=1;" parent="zPg9-DdeoBqVfjQdLSbW-1" vertex="1">
          <mxGeometry x="30" y="800" width="120" height="60" as="geometry" />
        </mxCell>
        <mxCell id="qDwk5MYWlUArIIvirNfc-10" style="edgeStyle=orthogonalEdgeStyle;rounded=0;orthogonalLoop=1;jettySize=auto;html=1;" edge="1" parent="zPg9-DdeoBqVfjQdLSbW-1" source="qDwk5MYWlUArIIvirNfc-1" target="qDwk5MYWlUArIIvirNfc-2">
          <mxGeometry relative="1" as="geometry" />
        </mxCell>
        <mxCell id="qDwk5MYWlUArIIvirNfc-1" value="User submits email" style="rounded=1;whiteSpace=wrap;html=1;" vertex="1" parent="zPg9-DdeoBqVfjQdLSbW-1">
          <mxGeometry x="167.5" y="350" width="120" height="60" as="geometry" />
        </mxCell>
        <mxCell id="qDwk5MYWlUArIIvirNfc-2" value="User submits password" style="rounded=1;whiteSpace=wrap;html=1;" vertex="1" parent="zPg9-DdeoBqVfjQdLSbW-1">
          <mxGeometry x="167.5" y="450" width="120" height="60" as="geometry" />
        </mxCell>
        <mxCell id="zPg9-DdeoBqVfjQdLSbW-163" value="User agrees to terms and services" style="rounded=1;whiteSpace=wrap;html=1;" parent="zPg9-DdeoBqVfjQdLSbW-1" vertex="1">
          <mxGeometry x="167.5" y="1159" width="120" height="60" as="geometry" />
        </mxCell>
        <mxCell id="zPg9-DdeoBqVfjQdLSbW-10" value="System" style="swimlane;whiteSpace=wrap;html=1;" parent="1" vertex="1">
          <mxGeometry x="285" y="10" width="1015" height="1820" as="geometry" />
        </mxCell>
        <mxCell id="zPg9-DdeoBqVfjQdLSbW-49" value="[Already Exists]" style="edgeStyle=orthogonalEdgeStyle;rounded=0;orthogonalLoop=1;jettySize=auto;html=1;exitX=0;exitY=0.5;exitDx=0;exitDy=0;entryX=0.5;entryY=0;entryDx=0;entryDy=0;endArrow=open;endFill=0;endSize=12;startSize=6;sourcePerimeterSpacing=0;" parent="zPg9-DdeoBqVfjQdLSbW-10" source="zPg9-DdeoBqVfjQdLSbW-32" target="zPg9-DdeoBqVfjQdLSbW-35" edge="1">
          <mxGeometry relative="1" as="geometry">
            <mxPoint x="90" y="822.5" as="targetPoint" />
          </mxGeometry>
        </mxCell>
        <mxCell id="zPg9-DdeoBqVfjQdLSbW-50" value="[Is Unique]" style="edgeStyle=orthogonalEdgeStyle;rounded=0;orthogonalLoop=1;jettySize=auto;html=1;exitX=1;exitY=0.5;exitDx=0;exitDy=0;entryX=0.5;entryY=0;entryDx=0;entryDy=0;endArrow=open;endFill=0;endSize=12;startSize=6;sourcePerimeterSpacing=0;" parent="zPg9-DdeoBqVfjQdLSbW-10" source="zPg9-DdeoBqVfjQdLSbW-32" target="zPg9-DdeoBqVfjQdLSbW-40" edge="1">
          <mxGeometry relative="1" as="geometry" />
        </mxCell>
        <mxCell id="zPg9-DdeoBqVfjQdLSbW-32" value="" style="rhombus;whiteSpace=wrap;html=1;" parent="zPg9-DdeoBqVfjQdLSbW-10" vertex="1">
          <mxGeometry x="150" y="750" width="40" height="40" as="geometry" />
        </mxCell>
        <mxCell id="zPg9-DdeoBqVfjQdLSbW-134" value="[Is Invalid]" style="edgeStyle=orthogonalEdgeStyle;rounded=0;orthogonalLoop=1;jettySize=auto;html=1;exitX=0;exitY=0.5;exitDx=0;exitDy=0;endArrow=open;endFill=0;endSize=12;startSize=6;sourcePerimeterSpacing=0;" parent="zPg9-DdeoBqVfjQdLSbW-10" source="zPg9-DdeoBqVfjQdLSbW-44" target="zPg9-DdeoBqVfjQdLSbW-133" edge="1">
          <mxGeometry relative="1" as="geometry" />
        </mxCell>
        <mxCell id="zPg9-DdeoBqVfjQdLSbW-136" value="[Is Valid]" style="edgeStyle=orthogonalEdgeStyle;rounded=0;orthogonalLoop=1;jettySize=auto;html=1;exitX=1;exitY=0.5;exitDx=0;exitDy=0;entryX=0.5;entryY=0;entryDx=0;entryDy=0;endArrow=open;endFill=0;endSize=12;startSize=6;sourcePerimeterSpacing=0;" parent="zPg9-DdeoBqVfjQdLSbW-10" source="zPg9-DdeoBqVfjQdLSbW-44" target="zPg9-DdeoBqVfjQdLSbW-135" edge="1">
          <mxGeometry relative="1" as="geometry">
            <mxPoint x="600" y="972.5" as="targetPoint" />
          </mxGeometry>
        </mxCell>
        <mxCell id="zPg9-DdeoBqVfjQdLSbW-44" value="" style="rhombus;whiteSpace=wrap;html=1;" parent="zPg9-DdeoBqVfjQdLSbW-10" vertex="1">
          <mxGeometry x="487.5" y="750" width="40" height="40" as="geometry" />
        </mxCell>
        <mxCell id="zPg9-DdeoBqVfjQdLSbW-155" style="edgeStyle=orthogonalEdgeStyle;rounded=0;orthogonalLoop=1;jettySize=auto;html=1;endArrow=open;endFill=0;endSize=12;startSize=6;sourcePerimeterSpacing=0;" parent="zPg9-DdeoBqVfjQdLSbW-10" source="zPg9-DdeoBqVfjQdLSbW-45" target="zPg9-DdeoBqVfjQdLSbW-51" edge="1">
          <mxGeometry relative="1" as="geometry">
            <Array as="points">
              <mxPoint x="510" y="520" />
              <mxPoint x="510" y="520" />
            </Array>
          </mxGeometry>
        </mxCell>
        <mxCell id="zPg9-DdeoBqVfjQdLSbW-45" value="System verifies details" style="rounded=1;whiteSpace=wrap;html=1;" parent="zPg9-DdeoBqVfjQdLSbW-10" vertex="1">
          <mxGeometry x="450" y="450" width="120" height="60" as="geometry" />
        </mxCell>
        <mxCell id="c77PiYMdBHS7b-3oL-oc-5" style="edgeStyle=orthogonalEdgeStyle;rounded=0;orthogonalLoop=1;jettySize=auto;html=1;exitX=0.5;exitY=1;exitDx=0;exitDy=0;endArrow=open;endFill=0;endSize=12;startSize=6;sourcePerimeterSpacing=0;" parent="zPg9-DdeoBqVfjQdLSbW-10" source="zPg9-DdeoBqVfjQdLSbW-40" target="c77PiYMdBHS7b-3oL-oc-4" edge="1">
          <mxGeometry relative="1" as="geometry" />
        </mxCell>
        <mxCell id="zPg9-DdeoBqVfjQdLSbW-40" value="Verify user details" style="rounded=1;whiteSpace=wrap;html=1;" parent="zPg9-DdeoBqVfjQdLSbW-10" vertex="1">
          <mxGeometry x="190" y="857.5" width="120" height="60" as="geometry" />
        </mxCell>
        <mxCell id="zPg9-DdeoBqVfjQdLSbW-35" value="Prompt to enter an original username" style="rounded=1;whiteSpace=wrap;html=1;" parent="zPg9-DdeoBqVfjQdLSbW-10" vertex="1">
          <mxGeometry x="30" y="857.5" width="120" height="60" as="geometry" />
        </mxCell>
        <mxCell id="qDwk5MYWlUArIIvirNfc-12" style="edgeStyle=orthogonalEdgeStyle;rounded=0;orthogonalLoop=1;jettySize=auto;html=1;endArrow=open;endFill=0;endSize=12;startSize=6;sourcePerimeterSpacing=0;" edge="1" parent="zPg9-DdeoBqVfjQdLSbW-10" source="zPg9-DdeoBqVfjQdLSbW-51" target="zPg9-DdeoBqVfjQdLSbW-106">
          <mxGeometry relative="1" as="geometry">
            <Array as="points">
              <mxPoint x="510" y="620" />
              <mxPoint x="510" y="620" />
            </Array>
          </mxGeometry>
        </mxCell>
        <mxCell id="qDwk5MYWlUArIIvirNfc-13" style="edgeStyle=orthogonalEdgeStyle;rounded=0;orthogonalLoop=1;jettySize=auto;html=1;endArrow=open;endFill=0;endSize=12;startSize=6;sourcePerimeterSpacing=0;" edge="1" parent="zPg9-DdeoBqVfjQdLSbW-10" source="zPg9-DdeoBqVfjQdLSbW-51" target="zPg9-DdeoBqVfjQdLSbW-54">
          <mxGeometry relative="1" as="geometry" />
        </mxCell>
        <mxCell id="qDwk5MYWlUArIIvirNfc-14" style="edgeStyle=orthogonalEdgeStyle;rounded=0;orthogonalLoop=1;jettySize=auto;html=1;endArrow=open;endFill=0;endSize=12;startSize=6;sourcePerimeterSpacing=0;" edge="1" parent="zPg9-DdeoBqVfjQdLSbW-10" source="zPg9-DdeoBqVfjQdLSbW-51" target="zPg9-DdeoBqVfjQdLSbW-108">
          <mxGeometry relative="1" as="geometry" />
        </mxCell>
        <mxCell id="zPg9-DdeoBqVfjQdLSbW-51" value="" style="rounded=0;whiteSpace=wrap;html=1;fillColor=#000000;" parent="zPg9-DdeoBqVfjQdLSbW-10" vertex="1">
          <mxGeometry x="20" y="550" width="980" height="20" as="geometry" />
        </mxCell>
        <mxCell id="zPg9-DdeoBqVfjQdLSbW-87" style="edgeStyle=orthogonalEdgeStyle;rounded=0;orthogonalLoop=1;jettySize=auto;html=1;exitX=0.5;exitY=1;exitDx=0;exitDy=0;entryX=0.5;entryY=0;entryDx=0;entryDy=0;endArrow=open;endFill=0;endSize=12;startSize=6;sourcePerimeterSpacing=0;" parent="zPg9-DdeoBqVfjQdLSbW-10" source="zPg9-DdeoBqVfjQdLSbW-54" target="zPg9-DdeoBqVfjQdLSbW-32" edge="1">
          <mxGeometry relative="1" as="geometry" />
        </mxCell>
        <mxCell id="zPg9-DdeoBqVfjQdLSbW-54" value="Check username" style="rounded=1;whiteSpace=wrap;html=1;" parent="zPg9-DdeoBqVfjQdLSbW-10" vertex="1">
          <mxGeometry x="110" y="630" width="120" height="60" as="geometry" />
        </mxCell>
        <mxCell id="zPg9-DdeoBqVfjQdLSbW-110" value="" style="edgeStyle=orthogonalEdgeStyle;rounded=0;orthogonalLoop=1;jettySize=auto;html=1;endArrow=open;endFill=0;endSize=12;startSize=6;sourcePerimeterSpacing=0;" parent="zPg9-DdeoBqVfjQdLSbW-10" source="zPg9-DdeoBqVfjQdLSbW-106" target="zPg9-DdeoBqVfjQdLSbW-44" edge="1">
          <mxGeometry relative="1" as="geometry" />
        </mxCell>
        <mxCell id="zPg9-DdeoBqVfjQdLSbW-106" value="Check email" style="rounded=1;whiteSpace=wrap;html=1;" parent="zPg9-DdeoBqVfjQdLSbW-10" vertex="1">
          <mxGeometry x="447.5" y="630" width="120" height="60" as="geometry" />
        </mxCell>
        <mxCell id="zPg9-DdeoBqVfjQdLSbW-111" value="" style="edgeStyle=orthogonalEdgeStyle;rounded=0;orthogonalLoop=1;jettySize=auto;html=1;endArrow=open;endFill=0;endSize=12;startSize=6;sourcePerimeterSpacing=0;" parent="zPg9-DdeoBqVfjQdLSbW-10" source="zPg9-DdeoBqVfjQdLSbW-108" target="zPg9-DdeoBqVfjQdLSbW-109" edge="1">
          <mxGeometry relative="1" as="geometry" />
        </mxCell>
        <mxCell id="zPg9-DdeoBqVfjQdLSbW-108" value="Check password" style="rounded=1;whiteSpace=wrap;html=1;" parent="zPg9-DdeoBqVfjQdLSbW-10" vertex="1">
          <mxGeometry x="790" y="630" width="120" height="60" as="geometry" />
        </mxCell>
        <mxCell id="zPg9-DdeoBqVfjQdLSbW-140" value="[Is Invalid}" style="edgeStyle=orthogonalEdgeStyle;rounded=0;orthogonalLoop=1;jettySize=auto;html=1;exitX=0;exitY=0.5;exitDx=0;exitDy=0;entryX=0.5;entryY=0;entryDx=0;entryDy=0;endArrow=open;endFill=0;endSize=12;startSize=6;sourcePerimeterSpacing=0;" parent="zPg9-DdeoBqVfjQdLSbW-10" source="zPg9-DdeoBqVfjQdLSbW-109" target="zPg9-DdeoBqVfjQdLSbW-138" edge="1">
          <mxGeometry relative="1" as="geometry">
            <Array as="points">
              <mxPoint x="770" y="770" />
            </Array>
          </mxGeometry>
        </mxCell>
        <mxCell id="zPg9-DdeoBqVfjQdLSbW-141" style="edgeStyle=orthogonalEdgeStyle;rounded=0;orthogonalLoop=1;jettySize=auto;html=1;endArrow=open;endFill=0;endSize=12;startSize=6;sourcePerimeterSpacing=0;" parent="zPg9-DdeoBqVfjQdLSbW-10" source="zPg9-DdeoBqVfjQdLSbW-139" target="c77PiYMdBHS7b-3oL-oc-9" edge="1">
          <mxGeometry relative="1" as="geometry">
            <mxPoint x="950" y="1095" as="targetPoint" />
          </mxGeometry>
        </mxCell>
        <mxCell id="zPg9-DdeoBqVfjQdLSbW-109" value="" style="rhombus;whiteSpace=wrap;html=1;" parent="zPg9-DdeoBqVfjQdLSbW-10" vertex="1">
          <mxGeometry x="830" y="750" width="40" height="40" as="geometry" />
        </mxCell>
        <mxCell id="zPg9-DdeoBqVfjQdLSbW-133" value="Prompt user to enter a valid email" style="rounded=1;whiteSpace=wrap;html=1;" parent="zPg9-DdeoBqVfjQdLSbW-10" vertex="1">
          <mxGeometry x="367.5" y="857.5" width="120" height="60" as="geometry" />
        </mxCell>
        <mxCell id="qDwk5MYWlUArIIvirNfc-16" style="edgeStyle=orthogonalEdgeStyle;rounded=0;orthogonalLoop=1;jettySize=auto;html=1;endArrow=open;endFill=0;endSize=12;startSize=6;sourcePerimeterSpacing=0;" edge="1" parent="zPg9-DdeoBqVfjQdLSbW-10" source="zPg9-DdeoBqVfjQdLSbW-135" target="c77PiYMdBHS7b-3oL-oc-7">
          <mxGeometry relative="1" as="geometry" />
        </mxCell>
        <mxCell id="zPg9-DdeoBqVfjQdLSbW-135" value="Verify user details" style="rounded=1;whiteSpace=wrap;html=1;" parent="zPg9-DdeoBqVfjQdLSbW-10" vertex="1">
          <mxGeometry x="527.5" y="857.5" width="120" height="60" as="geometry" />
        </mxCell>
        <mxCell id="zPg9-DdeoBqVfjQdLSbW-138" value="Prompt user to enter a valid, secure password" style="rounded=1;whiteSpace=wrap;html=1;" parent="zPg9-DdeoBqVfjQdLSbW-10" vertex="1">
          <mxGeometry x="710" y="857.5" width="120" height="60" as="geometry" />
        </mxCell>
        <mxCell id="zPg9-DdeoBqVfjQdLSbW-162" style="edgeStyle=orthogonalEdgeStyle;rounded=0;orthogonalLoop=1;jettySize=auto;html=1;exitX=0.5;exitY=1;exitDx=0;exitDy=0;entryX=0.5;entryY=0;entryDx=0;entryDy=0;endArrow=open;endFill=0;endSize=12;startSize=6;sourcePerimeterSpacing=0;" parent="zPg9-DdeoBqVfjQdLSbW-10" source="zPg9-DdeoBqVfjQdLSbW-154" target="zPg9-DdeoBqVfjQdLSbW-11" edge="1">
          <mxGeometry relative="1" as="geometry" />
        </mxCell>
        <mxCell id="zPg9-DdeoBqVfjQdLSbW-154" value="" style="rounded=0;whiteSpace=wrap;html=1;fillColor=#000000;" parent="zPg9-DdeoBqVfjQdLSbW-10" vertex="1">
          <mxGeometry x="20" y="1080" width="980" height="20" as="geometry" />
        </mxCell>
        <mxCell id="qDwk5MYWlUArIIvirNfc-19" style="edgeStyle=orthogonalEdgeStyle;rounded=0;orthogonalLoop=1;jettySize=auto;html=1;endArrow=open;endFill=0;endSize=12;startSize=6;sourcePerimeterSpacing=0;" edge="1" parent="zPg9-DdeoBqVfjQdLSbW-10" source="zPg9-DdeoBqVfjQdLSbW-167" target="zPg9-DdeoBqVfjQdLSbW-171">
          <mxGeometry relative="1" as="geometry" />
        </mxCell>
        <mxCell id="zPg9-DdeoBqVfjQdLSbW-169" value="[Link Pressed}" style="edgeStyle=orthogonalEdgeStyle;rounded=0;orthogonalLoop=1;jettySize=auto;html=1;exitX=0;exitY=0.5;exitDx=0;exitDy=0;entryX=0.5;entryY=0;entryDx=0;entryDy=0;endArrow=open;endFill=0;endSize=12;startSize=6;sourcePerimeterSpacing=0;" parent="zPg9-DdeoBqVfjQdLSbW-10" source="zPg9-DdeoBqVfjQdLSbW-171" target="zPg9-DdeoBqVfjQdLSbW-173" edge="1">
          <mxGeometry relative="1" as="geometry" />
        </mxCell>
        <mxCell id="zPg9-DdeoBqVfjQdLSbW-170" value="[Link Not Pressed}" style="edgeStyle=orthogonalEdgeStyle;rounded=0;orthogonalLoop=1;jettySize=auto;html=1;exitX=1;exitY=0.5;exitDx=0;exitDy=0;entryX=0.5;entryY=0;entryDx=0;entryDy=0;endArrow=open;endFill=0;endSize=12;startSize=6;sourcePerimeterSpacing=0;" parent="zPg9-DdeoBqVfjQdLSbW-10" source="zPg9-DdeoBqVfjQdLSbW-171" target="zPg9-DdeoBqVfjQdLSbW-175" edge="1">
          <mxGeometry relative="1" as="geometry" />
        </mxCell>
        <mxCell id="zPg9-DdeoBqVfjQdLSbW-171" value="" style="rhombus;whiteSpace=wrap;html=1;" parent="zPg9-DdeoBqVfjQdLSbW-10" vertex="1">
          <mxGeometry x="490" y="1380" width="40" height="40" as="geometry" />
        </mxCell>
        <mxCell id="zPg9-DdeoBqVfjQdLSbW-172" value="" style="edgeStyle=orthogonalEdgeStyle;rounded=0;orthogonalLoop=1;jettySize=auto;html=1;endArrow=open;endFill=0;endSize=12;startSize=6;sourcePerimeterSpacing=0;" parent="zPg9-DdeoBqVfjQdLSbW-10" source="zPg9-DdeoBqVfjQdLSbW-173" target="zPg9-DdeoBqVfjQdLSbW-179" edge="1">
          <mxGeometry relative="1" as="geometry" />
        </mxCell>
        <mxCell id="zPg9-DdeoBqVfjQdLSbW-173" value="User pressed verification link" style="rounded=1;whiteSpace=wrap;html=1;" parent="zPg9-DdeoBqVfjQdLSbW-10" vertex="1">
          <mxGeometry x="347.5" y="1440" width="120" height="60" as="geometry" />
        </mxCell>
        <mxCell id="zPg9-DdeoBqVfjQdLSbW-174" value="" style="edgeStyle=orthogonalEdgeStyle;rounded=0;orthogonalLoop=1;jettySize=auto;html=1;endArrow=open;endFill=0;endSize=12;startSize=6;sourcePerimeterSpacing=0;" parent="zPg9-DdeoBqVfjQdLSbW-10" source="zPg9-DdeoBqVfjQdLSbW-175" target="zPg9-DdeoBqVfjQdLSbW-177" edge="1">
          <mxGeometry relative="1" as="geometry" />
        </mxCell>
        <mxCell id="zPg9-DdeoBqVfjQdLSbW-175" value="User did not press the verification link" style="rounded=1;whiteSpace=wrap;html=1;" parent="zPg9-DdeoBqVfjQdLSbW-10" vertex="1">
          <mxGeometry x="547.5" y="1440" width="120" height="60" as="geometry" />
        </mxCell>
        <mxCell id="zPg9-DdeoBqVfjQdLSbW-176" style="edgeStyle=orthogonalEdgeStyle;rounded=0;orthogonalLoop=1;jettySize=auto;html=1;exitX=0.5;exitY=1;exitDx=0;exitDy=0;entryX=1;entryY=0.5;entryDx=0;entryDy=0;endArrow=open;endFill=0;endSize=12;startSize=6;sourcePerimeterSpacing=0;" parent="zPg9-DdeoBqVfjQdLSbW-10" source="zPg9-DdeoBqVfjQdLSbW-177" target="zPg9-DdeoBqVfjQdLSbW-181" edge="1">
          <mxGeometry relative="1" as="geometry" />
        </mxCell>
        <mxCell id="zPg9-DdeoBqVfjQdLSbW-177" value="User Account is suspended" style="rounded=1;whiteSpace=wrap;html=1;" parent="zPg9-DdeoBqVfjQdLSbW-10" vertex="1">
          <mxGeometry x="547.5" y="1550" width="120" height="60" as="geometry" />
        </mxCell>
        <mxCell id="zPg9-DdeoBqVfjQdLSbW-178" style="edgeStyle=orthogonalEdgeStyle;rounded=0;orthogonalLoop=1;jettySize=auto;html=1;exitX=0.5;exitY=1;exitDx=0;exitDy=0;entryX=0;entryY=0.5;entryDx=0;entryDy=0;endArrow=open;endFill=0;endSize=12;startSize=6;sourcePerimeterSpacing=0;" parent="zPg9-DdeoBqVfjQdLSbW-10" source="zPg9-DdeoBqVfjQdLSbW-179" target="zPg9-DdeoBqVfjQdLSbW-181" edge="1">
          <mxGeometry relative="1" as="geometry" />
        </mxCell>
        <mxCell id="zPg9-DdeoBqVfjQdLSbW-179" value="User Account is initialised" style="rounded=1;whiteSpace=wrap;html=1;" parent="zPg9-DdeoBqVfjQdLSbW-10" vertex="1">
          <mxGeometry x="347.5" y="1550" width="120" height="60" as="geometry" />
        </mxCell>
        <mxCell id="zPg9-DdeoBqVfjQdLSbW-180" style="edgeStyle=orthogonalEdgeStyle;rounded=0;orthogonalLoop=1;jettySize=auto;html=1;exitX=0.5;exitY=1;exitDx=0;exitDy=0;entryX=0.5;entryY=0;entryDx=0;entryDy=0;entryPerimeter=0;endArrow=open;endFill=0;endSize=12;startSize=6;sourcePerimeterSpacing=0;" parent="zPg9-DdeoBqVfjQdLSbW-10" source="zPg9-DdeoBqVfjQdLSbW-181" target="bMhkKMdwVl2Yt3h94EEw-2" edge="1">
          <mxGeometry relative="1" as="geometry">
            <mxPoint x="512.5" y="1750" as="targetPoint" />
          </mxGeometry>
        </mxCell>
        <mxCell id="zPg9-DdeoBqVfjQdLSbW-181" value="" style="rhombus;whiteSpace=wrap;html=1;" parent="zPg9-DdeoBqVfjQdLSbW-10" vertex="1">
          <mxGeometry x="492.5" y="1640" width="40" height="40" as="geometry" />
        </mxCell>
        <mxCell id="bMhkKMdwVl2Yt3h94EEw-1" value="" style="group" parent="zPg9-DdeoBqVfjQdLSbW-10" vertex="1" connectable="0">
          <mxGeometry x="487.5" y="1730" width="50" height="50" as="geometry" />
        </mxCell>
        <mxCell id="bMhkKMdwVl2Yt3h94EEw-2" value="" style="ellipse;whiteSpace=wrap;html=1;aspect=fixed;fillColor=none;strokeWidth=3;movable=1;resizable=1;rotatable=1;deletable=1;editable=1;locked=0;connectable=1;" parent="bMhkKMdwVl2Yt3h94EEw-1" vertex="1">
          <mxGeometry width="50" height="50" as="geometry" />
        </mxCell>
        <mxCell id="bMhkKMdwVl2Yt3h94EEw-3" value="" style="ellipse;whiteSpace=wrap;html=1;aspect=fixed;fillColor=#000000;movable=1;resizable=1;rotatable=1;deletable=1;editable=1;locked=0;connectable=1;" parent="bMhkKMdwVl2Yt3h94EEw-1" vertex="1">
          <mxGeometry x="7.5" y="7.5" width="35" height="35" as="geometry" />
        </mxCell>
        <mxCell id="c77PiYMdBHS7b-3oL-oc-4" value="" style="rhombus;whiteSpace=wrap;html=1;" parent="zPg9-DdeoBqVfjQdLSbW-10" vertex="1">
          <mxGeometry x="230" y="990" width="40" height="40" as="geometry" />
        </mxCell>
        <mxCell id="c77PiYMdBHS7b-3oL-oc-7" value="" style="rhombus;whiteSpace=wrap;html=1;" parent="zPg9-DdeoBqVfjQdLSbW-10" vertex="1">
          <mxGeometry x="567.5" y="990" width="40" height="40" as="geometry" />
        </mxCell>
        <mxCell id="c77PiYMdBHS7b-3oL-oc-9" value="" style="rhombus;whiteSpace=wrap;html=1;" parent="zPg9-DdeoBqVfjQdLSbW-10" vertex="1">
          <mxGeometry x="910" y="990" width="40" height="40" as="geometry" />
        </mxCell>
        <mxCell id="c77PiYMdBHS7b-3oL-oc-10" style="edgeStyle=orthogonalEdgeStyle;rounded=0;orthogonalLoop=1;jettySize=auto;html=1;endArrow=open;endFill=0;endSize=12;startSize=6;sourcePerimeterSpacing=0;" parent="zPg9-DdeoBqVfjQdLSbW-10" source="c77PiYMdBHS7b-3oL-oc-9" target="zPg9-DdeoBqVfjQdLSbW-154" edge="1">
          <mxGeometry relative="1" as="geometry">
            <Array as="points">
              <mxPoint x="930" y="1080" />
              <mxPoint x="930" y="1080" />
            </Array>
          </mxGeometry>
        </mxCell>
        <mxCell id="c77PiYMdBHS7b-3oL-oc-11" style="edgeStyle=orthogonalEdgeStyle;rounded=0;orthogonalLoop=1;jettySize=auto;html=1;endArrow=open;endFill=0;endSize=12;startSize=6;sourcePerimeterSpacing=0;" parent="zPg9-DdeoBqVfjQdLSbW-10" source="c77PiYMdBHS7b-3oL-oc-7" target="zPg9-DdeoBqVfjQdLSbW-154" edge="1">
          <mxGeometry relative="1" as="geometry">
            <Array as="points">
              <mxPoint x="587" y="1070" />
              <mxPoint x="587" y="1070" />
            </Array>
          </mxGeometry>
        </mxCell>
        <mxCell id="c77PiYMdBHS7b-3oL-oc-12" style="edgeStyle=orthogonalEdgeStyle;rounded=0;orthogonalLoop=1;jettySize=auto;html=1;endArrow=open;endFill=0;endSize=12;startSize=6;sourcePerimeterSpacing=0;" parent="zPg9-DdeoBqVfjQdLSbW-10" source="c77PiYMdBHS7b-3oL-oc-4" target="zPg9-DdeoBqVfjQdLSbW-154" edge="1">
          <mxGeometry relative="1" as="geometry">
            <Array as="points">
              <mxPoint x="250" y="1060" />
              <mxPoint x="250" y="1060" />
            </Array>
          </mxGeometry>
        </mxCell>
        <mxCell id="qDwk5MYWlUArIIvirNfc-15" value="[Is Valid" style="edgeStyle=orthogonalEdgeStyle;rounded=0;orthogonalLoop=1;jettySize=auto;html=1;exitX=1;exitY=0.5;exitDx=0;exitDy=0;endArrow=open;endFill=0;endSize=12;startSize=6;sourcePerimeterSpacing=0;" edge="1" parent="zPg9-DdeoBqVfjQdLSbW-10" source="zPg9-DdeoBqVfjQdLSbW-109" target="zPg9-DdeoBqVfjQdLSbW-139">
          <mxGeometry relative="1" as="geometry">
            <mxPoint x="1155" y="803" as="sourcePoint" />
            <mxPoint x="1235" y="1105" as="targetPoint" />
            <Array as="points">
              <mxPoint x="930" y="770" />
            </Array>
          </mxGeometry>
        </mxCell>
        <mxCell id="zPg9-DdeoBqVfjQdLSbW-139" value="Verify user details" style="rounded=1;whiteSpace=wrap;html=1;" parent="zPg9-DdeoBqVfjQdLSbW-10" vertex="1">
          <mxGeometry x="870" y="857.5" width="120" height="60" as="geometry" />
        </mxCell>
        <mxCell id="zPg9-DdeoBqVfjQdLSbW-11" value="Present terms of service" style="rounded=1;whiteSpace=wrap;html=1;" parent="zPg9-DdeoBqVfjQdLSbW-10" vertex="1">
          <mxGeometry x="449.5" y="1159" width="120" height="60" as="geometry" />
        </mxCell>
        <mxCell id="zPg9-DdeoBqVfjQdLSbW-165" value="User submits Sign Up form" style="rounded=1;whiteSpace=wrap;html=1;" parent="zPg9-DdeoBqVfjQdLSbW-10" vertex="1">
          <mxGeometry x="-288" y="1270" width="120" height="60" as="geometry" />
        </mxCell>
        <mxCell id="zPg9-DdeoBqVfjQdLSbW-167" value="Creates a new user and stores the information" style="rounded=1;whiteSpace=wrap;html=1;" parent="zPg9-DdeoBqVfjQdLSbW-10" vertex="1">
          <mxGeometry x="449.5" y="1270" width="120" height="60" as="geometry" />
        </mxCell>
        <mxCell id="qDwk5MYWlUArIIvirNfc-18" style="edgeStyle=orthogonalEdgeStyle;rounded=0;orthogonalLoop=1;jettySize=auto;html=1;endArrow=open;endFill=0;endSize=12;startSize=6;sourcePerimeterSpacing=0;" edge="1" parent="zPg9-DdeoBqVfjQdLSbW-10" source="zPg9-DdeoBqVfjQdLSbW-165" target="zPg9-DdeoBqVfjQdLSbW-167">
          <mxGeometry relative="1" as="geometry" />
        </mxCell>
        <mxCell id="zPg9-DdeoBqVfjQdLSbW-190" style="edgeStyle=orthogonalEdgeStyle;rounded=0;orthogonalLoop=1;jettySize=auto;html=1;endArrow=open;endFill=0;endSize=12;startSize=6;sourcePerimeterSpacing=0;" parent="1" source="zPg9-DdeoBqVfjQdLSbW-35" target="zPg9-DdeoBqVfjQdLSbW-188" edge="1">
          <mxGeometry relative="1" as="geometry">
            <Array as="points">
              <mxPoint x="150" y="900" />
            </Array>
          </mxGeometry>
        </mxCell>
        <mxCell id="zPg9-DdeoBqVfjQdLSbW-204" style="edgeStyle=orthogonalEdgeStyle;rounded=0;orthogonalLoop=1;jettySize=auto;html=1;exitX=0.5;exitY=1;exitDx=0;exitDy=0;entryX=0.5;entryY=1;entryDx=0;entryDy=0;endArrow=open;endFill=0;endSize=12;startSize=6;sourcePerimeterSpacing=0;" parent="1" source="zPg9-DdeoBqVfjQdLSbW-133" target="zPg9-DdeoBqVfjQdLSbW-191" edge="1">
          <mxGeometry relative="1" as="geometry" />
        </mxCell>
        <mxCell id="qDwk5MYWlUArIIvirNfc-11" style="edgeStyle=orthogonalEdgeStyle;rounded=0;orthogonalLoop=1;jettySize=auto;html=1;endArrow=open;endFill=0;endSize=12;startSize=6;sourcePerimeterSpacing=0;" edge="1" parent="1" source="qDwk5MYWlUArIIvirNfc-2" target="zPg9-DdeoBqVfjQdLSbW-45">
          <mxGeometry relative="1" as="geometry" />
        </mxCell>
        <mxCell id="zPg9-DdeoBqVfjQdLSbW-205" style="edgeStyle=orthogonalEdgeStyle;rounded=0;orthogonalLoop=1;jettySize=auto;html=1;endArrow=open;endFill=0;endSize=12;startSize=6;sourcePerimeterSpacing=0;" parent="1" source="zPg9-DdeoBqVfjQdLSbW-138" target="zPg9-DdeoBqVfjQdLSbW-203" edge="1">
          <mxGeometry relative="1" as="geometry">
            <mxPoint x="1055" y="967.5" as="sourcePoint" />
            <mxPoint x="-110" y="909.9999999999998" as="targetPoint" />
            <Array as="points">
              <mxPoint x="1055" y="970" />
              <mxPoint x="-110" y="970" />
            </Array>
          </mxGeometry>
        </mxCell>
        <mxCell id="zPg9-DdeoBqVfjQdLSbW-164" style="edgeStyle=orthogonalEdgeStyle;rounded=0;orthogonalLoop=1;jettySize=auto;html=1;exitX=0;exitY=0.5;exitDx=0;exitDy=0;entryX=1;entryY=0.5;entryDx=0;entryDy=0;endArrow=open;endFill=0;endSize=12;startSize=6;sourcePerimeterSpacing=0;" parent="1" source="zPg9-DdeoBqVfjQdLSbW-11" target="zPg9-DdeoBqVfjQdLSbW-163" edge="1">
          <mxGeometry relative="1" as="geometry" />
        </mxCell>
        <mxCell id="zPg9-DdeoBqVfjQdLSbW-166" value="" style="edgeStyle=orthogonalEdgeStyle;rounded=0;orthogonalLoop=1;jettySize=auto;html=1;endArrow=open;endFill=0;endSize=12;startSize=6;sourcePerimeterSpacing=0;" parent="1" source="zPg9-DdeoBqVfjQdLSbW-163" target="zPg9-DdeoBqVfjQdLSbW-165" edge="1">
          <mxGeometry relative="1" as="geometry" />
        </mxCell>
      </root>
    </mxGraphModel>
  </diagram>
</mxfile>
